/* XPM */
static char *xchat[] = {
/* columns rows colors chars-per-pixel */
"32 32 180 2 ",
"   c #020100",
".  c #090401",
"X  c #0D0A02",
"o  c #080808",
"O  c #150502",
"+  c #1A0702",
"@  c #130D01",
"#  c #1A0802",
"$  c #191302",
"%  c #1F1E1E",
"&  c #210B02",
"*  c #280F02",
"=  c #330C02",
"-  c #2B1103",
";  c #221B03",
":  c #391302",
">  c #321303",
",  c #2B2402",
"<  c #2C2802",
"1  c #312C02",
"2  c #3C2E02",
"3  c #3D3402",
"4  c #3F3902",
"5  c #5C0F02",
"6  c #4C1E00",
"7  c #5D1402",
"8  c #5D1B02",
"9  c #452902",
"0  c #532F02",
"q  c #403602",
"w  c #5E3A03",
"e  c #63381B",
"r  c #423731",
"t  c #5F4103",
"y  c #6A4504",
"u  c #664904",
"i  c #685103",
"p  c #765503",
"a  c #654219",
"s  c #796104",
"d  c #775A2D",
"f  c #565656",
"g  c #484848",
"h  c #6A5247",
"j  c #615B57",
"k  c #7C6858",
"l  c #616161",
"z  c #747474",
"x  c #7D7D7D",
"c  c #931B04",
"v  c #982603",
"b  c #A12703",
"n  c #A13303",
"m  c #A83404",
"M  c #AE3A02",
"N  c #D52102",
"B  c #C33403",
"V  c #C43A00",
"C  c #D53002",
"Z  c #E12901",
"A  c #FB2B00",
"S  c #E13A01",
"D  c #FF3300",
"F  c #FD3B00",
"G  c #F73301",
"H  c #8A5C04",
"J  c #9F4C17",
"K  c #A44108",
"L  c #B44403",
"P  c #A15017",
"I  c #BB5A18",
"U  c #8D6103",
"Y  c #956B04",
"T  c #9A7404",
"R  c #A07B03",
"E  c #BE6115",
"W  c #9A532E",
"Q  c #B26733",
"!  c #C34801",
"~  c #C14304",
"^  c #DE4F05",
"/  c #C0560A",
"(  c #D45B07",
")  c #C05813",
"_  c #D05A15",
"`  c #EC4900",
"'  c #E14101",
"]  c #FE4300",
"[  c #FE4B00",
"{  c #F44700",
"}  c #EE5700",
"|  c #FE5300",
" . c #F55B00",
".. c #FE5B00",
"X. c #DB6100",
"o. c #DA7801",
"O. c #DB7F17",
"+. c #C26815",
"@. c #EC6800",
"#. c #EE6000",
"$. c #FE6400",
"%. c #FD6D00",
"&. c #E67C0F",
"*. c #F67217",
"=. c #F07B2D",
"-. c #9C7653",
";. c #976645",
":. c #AA7551",
">. c #A37359",
",. c #A97C57",
"<. c #DC7944",
"1. c #AC8B03",
"2. c #A88204",
"3. c #AF9503",
"4. c #B89903",
"5. c #B8A503",
"6. c #DD8602",
"7. c #CA9901",
"8. c #E18802",
"9. c #FF8D00",
"0. c #F98C0B",
"q. c #E39302",
"w. c #EA9B02",
"e. c #FF9400",
"r. c #FE9C00",
"t. c #F39F01",
"y. c #EC8D13",
"u. c #F38D15",
"i. c #F49515",
"p. c #C9AA02",
"a. c #C9A301",
"s. c #C9B302",
"d. c #E9A502",
"f. c #F5A501",
"g. c #FFA400",
"h. c #F5AD01",
"j. c #FFAC00",
"k. c #EDB801",
"l. c #FFB400",
"z. c #FEBB00",
"x. c #F7B401",
"c. c #FEC300",
"v. c #FFCB00",
"b. c #F1C702",
"n. c #FFD300",
"m. c #FFDC00",
"M. c #FFE500",
"N. c #9F836B",
"B. c #CF9E5D",
"V. c #F39754",
"C. c #E69857",
"Z. c #E4A546",
"A. c #E39F77",
"S. c #E3B17B",
"D. c #888888",
"F. c #969696",
"G. c #BBA695",
"H. c #ABABAB",
"J. c #C9B4A2",
"K. c #C7B3A2",
"L. c #C7BEB6",
"P. c #D6BCA6",
"I. c #F6C29A",
"U. c #EED1B3",
"Y. c #C4C4C4",
"T. c #CBCBCB",
"R. c #DCDCDC",
"E. c #EEE5DB",
"W. c #FAE7DC",
"Q. c #E2E2E2",
"!. c #E9E6E3",
"~. c #EDECEC",
"^. c #E7E8E8",
"/. c #FAEEE4",
"(. c #FAF0E9",
"). c #EFEFF0",
"_. c #F4F4F4",
"`. c #FCFDFD",
"'. c #F7F8F9",
"]. c None",
/* pixels */
"].].].].].].].].].].].].].].].].].].].].].].].].].].].].].].].].",
"].].].].].].].].].].].].].].].].].].].].].].].].].].].].].].].].",
"].].].].].  1 < ].].].].].].].].].].].].].].].].< <   ].].].].].",
"].].].].  4 s.5.< ].].].].].].].].].].].].].]., 7.p.3   ].].].].",
"].].].  4 s.M.M.5., ].].].].].].].].].].].]., 4.v.n.a.3   ].].].",
"].].  3 s.M.m.m.m.3.; ].].].].].].].].].].; 1.b.v.v.v.7.2   ].].",
"].].3 p.m.n.n.n.n.n.1.; ].].].].].].].].; 2.c.c.c.c.z.c.7.2 ].].",
"].  i b.n.n.n.v.v.v.b.R $ ].].].].].].$ R z.z.z.z.z.z.l.h.u   ].",
"].].X s k.v.v.v.c.c.c.c.T $ ].].].].$ T x.z.l.l.l.l.l.d.p @ ].].",
"].].].X p k.c.z.z.z.z.z.h.Y @ ].].@ Y h.l.j.l.j.j.j.w.p X ].].].",
"].].].].. i d.z.l.l.l.l.l.h.U @ @ H f.j.j.g.g.j.g.q.y X ].].].].",
"].].].].].. u d.l.l.j.j.j.j.f.H H t.g.g.g.g.g.r.q.y . ].].].].].",
"].].].].].].. t q.j.g.g.g.g.g.t.r.g.g.r.r.r.r.6.w . ].].].].].].",
"].].].].].].].  t 6.r.g.r.r.r.r.e.e.e.e.e.e.o.w   ].].].].].].].",
"].].].].].].].].  d Z.i.e.e.e.e.e.9.e.9.9.o.0   ].].].].].].].].",
"].].].].].].].].].H.Q.B.y.i.u.u.0.9.u.u.y.a % ].].].].].Q.H.].].",
"].R.~.~.~.~.~.R.].R.).!.E.E.E.E.S.&.U.E.Q.R.Q.~.~.].].~.).^.Y.].",
"].^._.H.z x z l ].Y.'.G.-.-.G.`.K.+./.~.N.;.l x ~.F.].~.'.H.g ].",
"].~.'.D.].].].].  H.`.,.X.@.C.`.K.+./.!.P ( 6 % ~.Q.].).'.D.].].",
"]._.`.F.].].].% 9 P.`.,.@.%.V.`.K.) /.!.Q *._ e ^.~.]._.`.F.].].",
"].~.`.'.'.`.'.L.) I.`.:.#.$.V.`.G.) /.`.(.(.A._ W.Q.].~.`._.T.].",
"].].D.x z l k ;./ =.:.J #.$.I j r K <.>.>.>.W ^ <.h o ].D.x f ].",
"].].].].  : ! } $...}  ...L -     - M ` ` ` { [ { V :   ].].].].",
"].].].  : ! ......| | | M * ].].].].- M [ [ [ [ [ [ B :   ].].].",
"].].  > ~ ..| | | | | m & ].].].].].].& m ] ] ] ] F ] B =   ].].",
"].].O n | [ [ [ [ [ n & ].].].].].].].].# b F F F F D F v O ].].",
"].].  8 ' [ [ ] { v # ].].].].].].].].].].+ v D D D A Z 7   ].].",
"].].].  8 C ] F v # ].].].].].].].].].].].].+ c A A Z 5   ].].].",
"].].].].. 7 C v + ].].].].].].].].].].].].].].+ c N 5   ].].].].",
"].].].].].. = O ].].].].].].].].].].].].].].].].O = . ].].].].].",
"].].].].].].].].].].].].].].].].].].].].].].].].].].].].].].].].",
"].].].].].].].].].].].].].].].].].].].].].].].].].].].].].].].]."
};
